HIERARCHY
ROOT Hips
{
	OFFSET 0.000000 0.000000 0.000000 
	CHANNELS 6 Xposition Yposition Zposition Yrotation Zrotation Xrotation 
	JOINT Lumbar
	{
		OFFSET 0.000000 0.000000 0.000000 
		CHANNELS 3 Zrotation Xrotation Yrotation
		JOINT Neck
		{
			OFFSET 0.000000 0.445665 0.000000 
			CHANNELS 3 Zrotation Xrotation Yrotation
			End Site
			{
				OFFSET 0.000000 0.227535 0.000000 
			}
		}
		JOINT RightShoulder
		{
			OFFSET 0.019635 0.377685 0.194865 
			CHANNELS 3 Zrotation Xrotation Yrotation
			JOINT RightElbow
			{
				OFFSET 0.000000 -0.243375 0.000000 
				CHANNELS 2 Zrotation Yrotation
				JOINT RightWrist
				{
					OFFSET 0.000000 -0.264825 0.000000 
					CHANNELS 2 Zrotation Xrotation
					End Site
					{
						OFFSET 0.006600 -0.176220 0.000990 
					}
				}
			}
		}
		JOINT LeftShoulder
		{
			OFFSET 0.019635 0.377685 -0.194865 
			CHANNELS 3 Zrotation Xrotation Yrotation
			JOINT LeftElbow
			{
				OFFSET 0.000000 -0.243375 0.000000 
				CHANNELS 2 Zrotation Yrotation
				JOINT LeftWrist
				{
					OFFSET 0.000000 -0.264825 0.000000 
					CHANNELS 2 Zrotation Xrotation
					End Site
					{
						OFFSET 0.006600 -0.176220 -0.000990 
					}
				}
			}
		}
	}
	JOINT RightHip
	{
		OFFSET 0.052140 -0.069960 0.075570 
		CHANNELS 3 Zrotation Xrotation Yrotation
		JOINT RightKnee
		{
			OFFSET 0.000000 -0.402270 0.000000 
			CHANNELS 1 Zrotation
			JOINT RightAnkle
			{
				OFFSET 0.000000 -0.404085 0.000000 
				CHANNELS 3 Zrotation Xrotation Yrotation
				End Site
				{
					OFFSET 0.204105 -0.089430 0.008415 
				}
			}
		}
	}
	JOINT LeftHip
	{
		OFFSET 0.052140 -0.069960 -0.075570 
		CHANNELS 3 Zrotation Xrotation Yrotation
		JOINT LeftKnee
		{
			OFFSET 0.000000 -0.402270 0.000000 
			CHANNELS 1 Zrotation
			JOINT LeftAnkle
			{
				OFFSET 0.000000 -0.404085 0.000000 
				CHANNELS 3 Zrotation Xrotation Yrotation
				End Site
				{
					OFFSET 0.204105 -0.089430 -0.008415 
				}
			}
		}
	}
}
MOTION
Frames: 14
Frame Time: 0.02
-0 0.95578 0 179.09789 0 -3.94161 4.33197 3.779 -3.12678 -36.61971 0.9169 2.92019 5.5274 -71.99505 -87.15307 20.62372 76.47235 -22.79613 -2.06308 26.66672 63.12161 68.60992 20.09438 -84.60205 -23.74165 3.88554 -3.27376 6.58475 -7.90265 -7.92095 0.46777 -3.65581 -8.95095 -2.47294 3.2702 4.86845 -6.63454 5.7656 5.05442 8.9989
0.00107 0.95573 -3e-05 179.08861 0 -3.94771 4.28503 3.83482 -2.94546 -36.68795 0.7534 2.88552 8.3861 -71.49162 -85.88014 20.85311 77.45918 -22.20868 -2.22185 28.49527 63.2562 66.3407 20.52461 -84.40866 -23.917 3.87508 -3.20315 6.59261 -7.87171 -7.93267 0.47353 -3.66224 -8.97158 -2.39002 3.27808 4.85355 -6.67391 5.77342 5.06563 9.01955
0.00214 0.95567 -6e-05 179.07981 0 -3.95378 4.23835 3.89036 -2.76512 -36.75453 0.59069 2.85095 11.23845 -70.98933 -84.59606 21.08198 78.44234 -21.62282 -2.38036 30.32273 63.38897 64.06665 20.95496 -84.22048 -24.09156 3.86475 -3.13275 6.60044 -7.84138 -7.94434 0.47934 -3.66859 -8.99199 -2.3073 3.28596 4.83843 -6.71301 5.78117 5.07674 9.03996
0.00321 0.95561 -9e-05 179.07226 0 -3.95982 4.19235 3.94536 -2.58712 -36.81568 0.42943 2.81642 14.08399 -70.4903 -83.27202 21.30893 79.41199 -21.03556 -2.53753 32.1543 63.51917 61.76891 21.38663 -84.04713 -24.26148 3.85395 -3.06287 6.60827 -7.81306 -7.95569 0.48531 -3.67465 -9.01137 -2.22523 3.2939 4.82275 -6.75088 5.78873 5.08753 9.05974
0.00429 0.95555 -0.00012 179.05742 0 -3.96605 4.14284 4.00326 -2.39697 -36.90622 0.26041 2.78168 16.95444 -69.97842 -82.18021 21.54359 80.44295 -20.45319 -2.69959 33.95287 63.66716 59.618 21.80721 -83.79026 -24.45214 3.84459 -2.99068 6.61612 -7.77397 -7.96845 0.49033 -3.6822 -9.03578 -2.14049 3.3015 4.81058 -6.79465 5.7973 5.09997 9.08299
0.00536 0.95549 -0.00016 179.05846 0 -3.97186 4.10077 4.05495 -2.23256 -36.93407 0.10803 2.74743 19.77688 -69.49124 -80.58437 21.76335 81.35016 -19.86281 -2.85264 35.827 63.77456 57.14423 22.25362 -83.71367 -24.60132 3.83289 -2.92315 6.62392 -7.75779 -7.97844 0.4974 -3.68661 -9.04983 -2.06099 3.30981 4.79064 -6.82631 5.80375 5.10892 9.09881
0.00638 0.95541 -0.00021 179.1012 0 -3.97681 4.07909 4.09042 -2.13824 -36.78713 -0.00177 2.71325 22.47625 -69.08474 -77.61708 21.93277 81.8715 -19.21981 -2.9714 37.90477 63.7906 53.79935 22.76376 -84.12309 -24.6143 3.80832 -2.86952 6.63181 -7.80595 -7.97874 0.51014 -3.68199 -9.0319 -1.9985 3.32035 4.75082 -6.82054 5.80399 5.10808 9.0944
0.00739 0.95533 -0.00026 179.16043 0 -3.9813 4.06491 4.11949 -2.06994 -36.57715 -0.09432 2.67969 25.1273 -68.69945 -74.1338 22.08903 82.2776 -18.57474 -3.08292 40.06072 63.76077 50.12225 23.30229 -84.7173 -24.58951 3.78253 -2.82032 6.63961 -7.87716 -7.97663 0.52497 -3.67427 -9.00406 -1.94079 3.33156 4.70275 -6.80326 5.80212 5.10375 9.08249
0.00841 0.95525 -0.0003 179.21357 0 -3.98583 4.04742 4.15093 -1.99027 -36.3968 -0.19267 2.64668 27.79913 -68.29708 -70.86948 22.25747 82.76458 -17.94826 -3.20403 42.18852 63.7398 46.57789 23.83297 -85.23503 -24.59593 3.76147 -2.76835 6.64731 -7.93712 -7.97688 0.53888 -3.66818 -8.98297 -1.87918 3.34229 4.65752 -6.79387 5.80146 5.10111 9.07375
0.00942 0.95517 -0.00036 179.26072 0 -3.9911 4.02962 4.18467 -1.90882 -36.21194 -0.29944 2.61041 30.48012 -67.93023 -67.67137 22.39967 83.12711 -17.24282 -3.29855 44.29032 63.77387 43.10587 24.34082 -85.72048 -24.54254 3.72286 -2.71965 6.6556 -8.00012 -7.97165 0.55268 -3.66109 -8.95258 -1.82487 3.35376 4.61651 -6.77334 5.79983 5.09798 9.06576
0.01045 0.9551 -0.0004 179.32436 0 -3.9947 4.01413 4.21207 -1.83711 -36.02199 -0.38481 2.58078 33.12481 -67.48936 -64.21246 22.59346 83.72654 -16.70708 -3.44667 46.45799 63.67683 39.41067 24.90478 -86.3178 -24.60543 3.72043 -2.66511 6.66264 -8.06257 -7.97743 0.5672 -3.65542 -8.93901 -1.75651 3.36383 4.56429 -6.77317 5.79961 5.09508 9.05473
0.01152 0.95505 -0.00042 179.42861 0 -3.99373 4.00405 4.22359 -1.78738 -35.82897 -0.41353 2.57158 35.73019 -66.87995 -60.16217 22.93173 84.96505 -16.58976 -3.74513 48.84615 63.27519 35.12463 25.59976 -87.17344 -24.99331 3.81906 -2.59402 6.66645 -8.11506 -8.0128 0.5831 -3.65385 -8.97618 -1.64783 3.36999 4.48697 -6.83282 5.80456 5.09351 9.03455
0.01261 0.95501 -0.00043 179.54905 0 -3.9911 3.99577 4.22893 -1.74639 -35.63366 -0.4217 2.5685 38.29021 -66.18629 -55.86783 23.32205 86.45365 -16.65189 -4.09769 51.2855 62.73369 30.63654 26.3521 -88.13683 -25.5007 3.95405 -2.5168 6.66899 -8.16666 -8.05958 0.59964 -3.65393 -9.03035 -1.52493 3.3747 4.39795 -6.91316 5.81083 5.09231 9.01201
0.01369 0.95497 -0.00044 179.66261 0 -3.98928 3.98625 4.23705 -1.70033 -35.44248 -0.44041 2.56128 40.84073 -65.50603 -51.68201 23.69004 87.85666 -16.66615 -4.42509 53.66571 62.22704 26.2766 27.09099 -89.05378 -25.9566 4.07174 -2.44195 6.67199 -8.2206 -8.10207 0.61597 -3.65364 -9.07542 -1.40872 3.38001 4.31171 -6.98353 5.81603 5.09109 8.9923
